<svg width="184" height="91" viewBox="0 0 184 91" fill="none" xmlns="http://www.w3.org/2000/svg">
<path d="M35.4194 24.0671L0 58.4486H35.4194L48.1341 37.1648L35.4194 24.0671Z" fill="url(#paint0_linear_255_241)"/>
<path d="M97.9873 40.5089L72.1242 0L36.1006 58.4486H72.1242L97.9873 40.5089Z" fill="url(#paint1_linear_255_241)"/>
<path d="M125.493 42.6476L111.016 30.9433L73.9204 58.4485H111.016L125.493 42.6476Z" fill="url(#paint2_linear_255_241)"/>
<path d="M183.941 58.4486L149.247 17.1908L111.74 58.4486H183.941Z" fill="url(#paint3_linear_255_241)"/>
<path d="M8.36316 64.8549V90.4486H3.1073V64.8549H8.36316ZM34.1327 64.8549V90.4486H28.8593L18.576 73.2924V90.4486H13.3026V64.8549H18.576L28.8768 82.0287V64.8549H34.1327ZM52.0448 83.7514C52.0448 83.2943 51.9745 82.8842 51.8339 82.5209C51.705 82.1459 51.4589 81.8061 51.0956 81.5014C50.7323 81.185 50.2225 80.8744 49.5663 80.5697C48.91 80.265 48.0604 79.9486 47.0175 79.6205C45.8573 79.2455 44.7557 78.8236 43.7128 78.3549C42.6815 77.8861 41.7675 77.3412 40.9706 76.7201C40.1854 76.0873 39.5643 75.3549 39.1073 74.5229C38.662 73.6908 38.4393 72.724 38.4393 71.6225C38.4393 70.5561 38.6737 69.5893 39.1425 68.7221C39.6112 67.8432 40.2675 67.0932 41.1112 66.4721C41.955 65.8393 42.951 65.3529 44.0995 65.0131C45.2596 64.6732 46.5311 64.5033 47.9139 64.5033C49.8007 64.5033 51.4471 64.8432 52.8534 65.5229C54.2596 66.2025 55.3495 67.1342 56.1229 68.3178C56.9081 69.5014 57.3007 70.8549 57.3007 72.3783H52.0624C52.0624 71.6283 51.9042 70.9721 51.5878 70.4096C51.2831 69.8354 50.8143 69.3842 50.1815 69.0561C49.5604 68.7279 48.7753 68.5639 47.826 68.5639C46.912 68.5639 46.1503 68.7045 45.5409 68.9857C44.9315 69.2553 44.4745 69.6244 44.1698 70.0932C43.8651 70.5502 43.7128 71.0658 43.7128 71.64C43.7128 72.0736 43.8182 72.4662 44.0292 72.8178C44.2518 73.1693 44.58 73.4975 45.0135 73.8022C45.4471 74.1068 45.9803 74.394 46.6132 74.6635C47.246 74.933 47.9784 75.1967 48.8104 75.4545C50.205 75.8764 51.4296 76.351 52.4843 76.8783C53.5507 77.4057 54.4413 77.9975 55.1561 78.6537C55.871 79.31 56.41 80.0541 56.7733 80.8861C57.1366 81.7182 57.3182 82.6615 57.3182 83.7162C57.3182 84.8295 57.1014 85.8256 56.6678 86.7045C56.2343 87.5834 55.6073 88.3275 54.787 88.9369C53.9667 89.5463 52.9882 90.0092 51.8514 90.3256C50.7147 90.642 49.4432 90.8002 48.037 90.8002C46.7714 90.8002 45.5233 90.6361 44.2928 90.308C43.0624 89.9682 41.9432 89.4584 40.9354 88.7787C39.9393 88.099 39.1425 87.2318 38.5448 86.1772C37.9471 85.1225 37.6483 83.8744 37.6483 82.433H42.9393C42.9393 83.2299 43.0624 83.9037 43.3085 84.4545C43.5546 85.0053 43.9003 85.4506 44.3456 85.7904C44.8026 86.1303 45.3417 86.3764 45.9628 86.5287C46.5956 86.6811 47.287 86.7572 48.037 86.7572C48.951 86.7572 49.701 86.6283 50.287 86.3705C50.8846 86.1127 51.3241 85.7553 51.6053 85.2982C51.8983 84.8412 52.0448 84.3256 52.0448 83.7514ZM66.5116 64.8549V90.4486H61.2557V64.8549H66.5116ZM91.7362 77.0717V87.2143C91.3378 87.6947 90.7225 88.2162 89.8905 88.7787C89.0585 89.3295 87.9862 89.8041 86.6737 90.2025C85.3612 90.601 83.7733 90.8002 81.91 90.8002C80.2577 90.8002 78.7518 90.5307 77.3925 89.9916C76.0331 89.4408 74.8612 88.6381 73.8768 87.5834C72.9042 86.5287 72.1542 85.2397 71.6268 83.7162C71.0995 82.1811 70.8358 80.4291 70.8358 78.4604V76.8607C70.8358 74.892 71.0878 73.14 71.5917 71.6049C72.1073 70.0697 72.8397 68.7748 73.7889 67.7201C74.7382 66.6654 75.869 65.8627 77.1815 65.3119C78.494 64.7611 79.953 64.4857 81.5585 64.4857C83.785 64.4857 85.6132 64.849 87.0428 65.5756C88.4725 66.2904 89.5624 67.2865 90.3124 68.5639C91.0741 69.8295 91.5428 71.2826 91.7186 72.9232H86.6034C86.4745 72.0561 86.2284 71.3002 85.8651 70.6557C85.5018 70.0111 84.9803 69.5072 84.3007 69.144C83.6327 68.7807 82.7655 68.599 81.6991 68.599C80.8202 68.599 80.035 68.7807 79.3436 69.144C78.6639 69.4955 78.0897 70.017 77.621 70.7084C77.1522 71.3998 76.7948 72.2553 76.5487 73.2748C76.3026 74.2943 76.1796 75.4779 76.1796 76.8256V78.4604C76.1796 79.7963 76.3085 80.9799 76.5663 82.0111C76.8241 83.0307 77.205 83.892 77.7089 84.5951C78.2245 85.2865 78.8573 85.808 79.6073 86.1596C80.3573 86.5111 81.2303 86.6869 82.2264 86.6869C83.0585 86.6869 83.7499 86.6166 84.3007 86.476C84.8632 86.3354 85.3143 86.1654 85.6542 85.9662C86.0057 85.7553 86.2753 85.5561 86.4628 85.3686V80.8334H81.6464V77.0717H91.7362ZM113.058 75.2787V79.392H99.6991V75.2787H113.058ZM101.264 64.8549V90.4486H95.9901V64.8549H101.264ZM116.82 64.8549V90.4486H111.564V64.8549H116.82ZM132.324 64.8549V90.4486H127.068V64.8549H132.324ZM140.199 64.8549V68.9857H119.316V64.8549H140.199ZM148.478 64.8549V90.4486H143.205V64.8549H148.478ZM158.674 75.7885V79.9018H147.037V75.7885H158.674ZM159.904 64.8549V68.9857H147.037V64.8549H159.904ZM166.478 64.8549L171.822 76.5268L177.166 64.8549H182.914L174.494 81.1322V90.4486H169.15V81.1322L160.713 64.8549H166.478Z" fill="url(#paint4_linear_255_241)"/>
<defs>
<linearGradient id="paint0_linear_255_241" x1="24.0671" y1="24.0671" x2="24.0671" y2="58.4486" gradientUnits="userSpaceOnUse">
<stop stop-color="#556AFE"/>
<stop offset="1" stop-color="#333F98"/>
</linearGradient>
<linearGradient id="paint1_linear_255_241" x1="67.044" y1="0" x2="67.044" y2="58.4486" gradientUnits="userSpaceOnUse">
<stop stop-color="#8266FF"/>
<stop offset="1" stop-color="#4E3D99"/>
</linearGradient>
<linearGradient id="paint2_linear_255_241" x1="99.7065" y1="30.9433" x2="99.7065" y2="58.4485" gradientUnits="userSpaceOnUse">
<stop stop-color="#58A8F7"/>
<stop offset="1" stop-color="#346391"/>
</linearGradient>
<linearGradient id="paint3_linear_255_241" x1="147.84" y1="17.1908" x2="147.84" y2="58.4486" gradientUnits="userSpaceOnUse">
<stop stop-color="#0C77F8"/>
<stop offset="1" stop-color="#074692"/>
</linearGradient>
<linearGradient id="paint4_linear_255_241" x1="83.7206" y1="64.4486" x2="83.7206" y2="90.4486" gradientUnits="userSpaceOnUse">
<stop stop-color="#054191"/>
<stop offset="1" stop-color="#6F67FE"/>
</linearGradient>
</defs>
</svg>
